<svg width="24" height="20" viewBox="0 0 24 20" fill="none" xmlns="http://www.w3.org/2000/svg">
<path d="M1.84295 8.03112L0.921473 8.95883L0 8.03112L0.921473 7.1034L1.84295 8.03112ZM24 18.5286C24 18.8766 23.8627 19.2104 23.6183 19.4564C23.3738 19.7025 23.0423 19.8408 22.6966 19.8408C22.351 19.8408 22.0195 19.7025 21.775 19.4564C21.5306 19.2104 21.3933 18.8766 21.3933 18.5286H24ZM7.43825 15.5198L0.921473 8.95883L2.76442 7.1034L9.2812 13.6643L7.43825 15.5198ZM0.921473 7.1034L7.43825 0.54248L9.2812 2.39791L2.76442 8.95883L0.921473 7.1034ZM1.84295 6.71893H14.8765V9.3433H1.84295V6.71893ZM24 15.9042V18.5286H21.3933V15.9042H24ZM14.8765 6.71893C17.2962 6.71893 19.6168 7.68666 21.3278 9.40924C23.0388 11.1318 24 13.4681 24 15.9042H21.3933C21.3933 14.1642 20.7067 12.4954 19.4846 11.2649C18.2624 10.0345 16.6049 9.3433 14.8765 9.3433V6.71893Z" fill="black"/>
</svg>
