<svg width="20" height="20" viewBox="0 0 20 20" fill="none" xmlns="http://www.w3.org/2000/svg">
<path d="M8.46154 2.5H5.38462C4.6775 2.5 3.9773 2.61316 3.32401 2.83303C2.67072 3.05289 2.07713 3.37515 1.57712 3.78141C1.07711 4.18766 0.680482 4.66996 0.409879 5.20076C0.139277 5.73156 0 6.30047 0 6.875C0 7.44953 0.139277 8.01844 0.409879 8.54924C0.680482 9.08004 1.07711 9.56234 1.57712 9.96859C2.07713 10.3748 2.67072 10.6971 3.32401 10.917C3.9773 11.1368 4.6775 11.25 5.38462 11.25H8.46154V15H1.53846V17.5H8.46154V20H11.5385V17.5H14.6154C16.0435 17.5 17.4131 17.0391 18.4229 16.2186C19.4327 15.3981 20 14.2853 20 13.125C20 11.9647 19.4327 10.8519 18.4229 10.0314C17.4131 9.21094 16.0435 8.75 14.6154 8.75H11.5385V5H18.4615V2.5H11.5385V0H8.46154V2.5ZM11.5385 11.25H14.6154C15.2274 11.25 15.8144 11.4475 16.2472 11.7992C16.6799 12.1508 16.9231 12.6277 16.9231 13.125C16.9231 13.6223 16.6799 14.0992 16.2472 14.4508C15.8144 14.8025 15.2274 15 14.6154 15H11.5385V11.25ZM8.46154 8.75H5.38462C5.08156 8.75 4.78148 8.7015 4.5015 8.60727C4.22152 8.51305 3.96712 8.37494 3.75283 8.20083C3.53854 8.02672 3.36856 7.82002 3.25259 7.59253C3.13661 7.36505 3.07692 7.12123 3.07692 6.875C3.07692 6.62877 3.13661 6.38495 3.25259 6.15747C3.36856 5.92998 3.53854 5.72328 3.75283 5.54917C3.96712 5.37506 4.22152 5.23695 4.5015 5.14273C4.78148 5.0485 5.08156 5 5.38462 5H8.46154V8.75Z" fill="black"/>
</svg>
