<svg width="11" height="15" viewBox="0 0 11 15" fill="none" xmlns="http://www.w3.org/2000/svg">
<path fill-rule="evenodd" clip-rule="evenodd" d="M1.24665 0.17442C1.4481 0.0492327 1.70972 -0.0127191 1.97401 0.00217854C2.23829 0.0170762 2.48363 0.107605 2.6561 0.25387L10.6568 7.03616C10.8121 7.16785 10.8975 7.33555 10.8975 7.50898C10.8975 7.6824 10.8121 7.85011 10.6568 7.9818L2.6561 14.7641C2.48078 14.9032 2.23787 14.9873 1.97873 14.9987C1.7196 15.01 1.46454 14.9477 1.26748 14.8249C1.07042 14.7021 0.9468 14.5284 0.922757 14.3406C0.898713 14.1528 0.976129 13.9655 1.13864 13.8184L8.58062 7.50898L1.13864 1.19951C0.966031 1.05338 0.880313 0.863438 0.900315 0.671412C0.920317 0.479387 1.0444 0.300983 1.24531 0.175389" fill="black"/>
</svg>
