<svg width="20" height="20" viewBox="0 0 20 20" fill="none" xmlns="http://www.w3.org/2000/svg">
<path d="M10 0C4.55769 0 0 4.064 0 9.2C0 11.624 1.04538 13.7984 2.69231 15.4248C2.49206 15.9691 2.20782 16.4757 1.85077 16.9248C1.37754 17.5218 0.854753 18.0743 0.288462 18.576C0.164243 18.6796 0.0740182 18.8208 0.0302377 18.9801C-0.0135428 19.1393 -0.00872021 19.3088 0.0440399 19.465C0.0967999 19.6213 0.194896 19.7567 0.324792 19.8525C0.454687 19.9483 0.609977 19.9999 0.769231 20C2.47308 20 3.69846 19.98 4.80769 19.6752C5.8 19.4016 6.65308 18.8288 7.52385 18.0248C8.31615 18.2224 9.13385 18.4 10 18.4C15.4423 18.4 20 14.336 20 9.2C20 4.064 15.4423 0 10 0ZM10 1.6C14.7115 1.6 18.4615 5.056 18.4615 9.2C18.4615 13.344 14.7115 16.8 10 16.8C9.16231 16.8 8.29231 16.6496 7.5 16.4248C7.3733 16.3917 7.24057 16.3926 7.11433 16.4276C6.98809 16.4626 6.8725 16.5305 6.77846 16.6248C5.91308 17.488 5.27538 17.8904 4.42308 18.1248C4.03077 18.2328 3.27385 18.2072 2.74 18.2504C2.84769 18.124 2.94846 18.0568 3.05308 17.9248C3.65769 17.1568 4.20923 16.3448 4.37538 15.4248C4.39827 15.2867 4.38588 15.1448 4.33944 15.0132C4.293 14.8817 4.21414 14.7651 4.11077 14.6752C2.49923 13.2912 1.53846 11.3512 1.53846 9.2C1.53846 5.056 5.28846 1.6 10 1.6ZM8.53385 4.7248C8.39845 4.7564 8.27379 4.82551 8.17308 4.9248L7.01923 6.0504L8.05308 7.2248L8.96615 6.3248H10.8169L11.5385 7.176V8.3512L9.56692 9.7256C9.46154 9.80023 9.37565 9.90094 9.31697 10.0187C9.25829 10.1364 9.22867 10.2674 9.23077 10.4V12H10.7692V10.8496L12.7408 9.4752C12.8463 9.40049 12.9322 9.29966 12.9909 9.18179C13.0496 9.06392 13.0791 8.93271 13.0769 8.8V6.8752C13.0759 6.68185 13.0076 6.49542 12.8846 6.3504L11.7308 5C11.659 4.91408 11.5704 4.84509 11.4709 4.79763C11.3714 4.75017 11.2633 4.72534 11.1538 4.7248H8.70154C8.64581 4.71844 8.58958 4.71844 8.53385 4.7248ZM9.23077 12.8V14.4H10.7692V12.8H9.23077Z" fill="black"/>
</svg>
