<svg width="20" height="25" viewBox="0 0 20 25" fill="none" xmlns="http://www.w3.org/2000/svg">
<path d="M10 24.9986C7.12952 24.1646 4.74524 22.4636 2.84714 19.8955C0.949048 17.3273 0 14.4335 0 11.2141V3.65509L10 0L20 3.65509V11.2141C20 14.4326 19.051 17.3259 17.1529 19.8941C15.2548 22.4622 12.8705 24.1628 10 24.9986ZM7.19857 17.5808H12.8014C13.129 17.5808 13.4033 17.4727 13.6243 17.2565C13.8452 17.0403 13.9557 16.772 13.9557 16.4514V12.3658C13.9557 12.0462 13.8452 11.7783 13.6243 11.5621C13.4033 11.3459 13.129 11.2378 12.8014 11.2378H12.5543V9.8401C12.5543 9.14216 12.3114 8.55511 11.8257 8.07895C11.34 7.60371 10.7405 7.3661 10.0271 7.3661C9.31381 7.3661 8.71429 7.60371 8.22857 8.07895C7.74286 8.55418 7.5 9.14123 7.5 9.8401V11.2378H7.19714C6.87048 11.2378 6.59667 11.3459 6.37571 11.5621C6.15476 11.7783 6.04429 12.0462 6.04429 12.3658V16.4514C6.04429 16.772 6.15476 17.0403 6.37571 17.2565C6.59667 17.4727 6.87095 17.5808 7.19857 17.5808ZM8.59857 11.2378V9.8401C8.59857 9.44407 8.73571 9.11188 9.01 8.84351C9.28429 8.57514 9.62333 8.44096 10.0271 8.44096C10.431 8.44096 10.7705 8.57514 11.0457 8.84351C11.321 9.11188 11.4576 9.44407 11.4557 9.8401V11.2378H8.59857Z" fill="black"/>
</svg>
